HIERARCHY
ROOT Hips
{
  OFFSET 5.72205e-005 65.662 3.42586
  CHANNELS 6 Xposition Yposition Zposition Zrotation Xrotation Yrotation
  JOINT Chest
  {
    OFFSET 0 8.7983 -4.7612
    CHANNELS 3 Zrotation Xrotation Yrotation
    JOINT Chest2
    {
      OFFSET 0 8.0291 0.4195
      CHANNELS 3 Zrotation Xrotation Yrotation
      JOINT Chest3
      {
        OFFSET 0 9.9351 -2.2114
        CHANNELS 3 Zrotation Xrotation Yrotation
        JOINT Neck
        {
          OFFSET 0 22.3885 -0.4656
          CHANNELS 3 Zrotation Xrotation Yrotation
          JOINT Head
          {
            OFFSET -0.0001 12.643 3.4389
            CHANNELS 3 Zrotation Xrotation Yrotation
            End Site
            {
              OFFSET 0.0001 17.6655 0.5274
            }
          }
        }
        JOINT LeftCollar
        {
          OFFSET 2.2603 21.606 7.4023
          CHANNELS 3 Zrotation Xrotation Yrotation
          JOINT LeftShoulder
          {
            OFFSET 13.5163 -1.1332 -5.0146
            CHANNELS 3 Zrotation Xrotation Yrotation
            JOINT LeftElbow
            {
              OFFSET -0.0995 -28.05 -0.2431
              CHANNELS 3 Zrotation Xrotation Yrotation
              JOINT LeftWrist
              {
                OFFSET 0.0679 -23.3996 -0.1402
                CHANNELS 3 Zrotation Xrotation Yrotation
                JOINT LeftFinger1
                {
                  OFFSET 0.7932 -9.069 2.5189
                  CHANNELS 3 Zrotation Xrotation Yrotation
                  JOINT LeftFinger11
                  {
                    OFFSET -0.8272 -3.3923 0.5977
                    CHANNELS 3 Zrotation Xrotation Yrotation
                    JOINT LeftFinger12
                    {
                      OFFSET -0.5649 -2.3158 0.4082
                      CHANNELS 3 Zrotation Xrotation Yrotation
                      End Site
                      {
                        OFFSET -0.4919 -1.6479 0.2673
                      }
                    }
                  }
                }
                JOINT LeftFinger2
                {
                  OFFSET 0.9159 -9.2044 0.2193
                  CHANNELS 3 Zrotation Xrotation Yrotation
                  JOINT LeftFinger21
                  {
                    OFFSET 0.0117 -4.1944 -0.0248
                    CHANNELS 3 Zrotation Xrotation Yrotation
                    JOINT LeftFinger22
                    {
                      OFFSET 0.0071 -2.3249 -0.0142
                      CHANNELS 3 Zrotation Xrotation Yrotation
                      End Site
                      {
                        OFFSET -0.1475 -2.0882 0.0028
                      }
                    }
                  }
                }
                JOINT LeftFinger3
                {
                  OFFSET 0.6113 -8.7231 -2.0637
                  CHANNELS 3 Zrotation Xrotation Yrotation
                  JOINT LeftFinger31
                  {
                    OFFSET -0.1927 -3.8059 -0.2383
                    CHANNELS 3 Zrotation Xrotation Yrotation
                    JOINT LeftFinger32
                    {
                      OFFSET -0.1091 -2.1688 -0.1362
                      CHANNELS 3 Zrotation Xrotation Yrotation
                      End Site
                      {
                        OFFSET -0.2358 -1.9176 -0.0906
                      }
                    }
                  }
                }
                JOINT LeftFinger4
                {
                  OFFSET -0.6151 -8.0947 -3.5641
                  CHANNELS 3 Zrotation Xrotation Yrotation
                  JOINT LeftFinger41
                  {
                    OFFSET -0.4882 -2.341 -0.6462
                    CHANNELS 3 Zrotation Xrotation Yrotation
                    JOINT LeftFinger42
                    {
                      OFFSET -0.3575 -1.7167 -0.4742
                      CHANNELS 3 Zrotation Xrotation Yrotation
                      End Site
                      {
                        OFFSET -0.4187 -1.5237 -0.3496
                      }
                    }
                  }
                }
                JOINT LeftFinger0
                {
                  OFFSET -1.42 -1.8761 1.4223
                  CHANNELS 3 Zrotation Xrotation Yrotation
                  JOINT LeftFinger01
                  {
                    OFFSET -1.1471 -3.4929 2.6334
                    CHANNELS 3 Zrotation Xrotation Yrotation
                    JOINT LeftFinger02
                    {
                      OFFSET -0.823 -2.3 1.6571
                      CHANNELS 3 Zrotation Xrotation Yrotation
                      End Site
                      {
                        OFFSET -0.5822 -1.6914 1.1582
                      }
                    }
                  }
                }
              }
            }
          }
        }
        JOINT RightCollar
        {
          OFFSET -2.2603 21.606 7.4023
          CHANNELS 3 Zrotation Xrotation Yrotation
          JOINT RightShoulder
          {
            OFFSET -13.5187 -1.1334 -5.0155
            CHANNELS 3 Zrotation Xrotation Yrotation
            JOINT RightElbow
            {
              OFFSET 0.0994 -28.0499 -0.2431
              CHANNELS 3 Zrotation Xrotation Yrotation
              JOINT RightWrist
              {
                OFFSET -0.0679 -23.3996 -0.1402
                CHANNELS 3 Zrotation Xrotation Yrotation
                JOINT RightFinger1
                {
                  OFFSET -0.7932 -9.0691 2.5189
                  CHANNELS 3 Zrotation Xrotation Yrotation
                  JOINT RightFinger11
                  {
                    OFFSET 0.8272 -3.3923 0.5977
                    CHANNELS 3 Zrotation Xrotation Yrotation
                    JOINT RightFinger12
                    {
                      OFFSET 0.565 -2.3158 0.4082
                      CHANNELS 3 Zrotation Xrotation Yrotation
                      End Site
                      {
                        OFFSET 0.4919 -1.6479 0.2673
                      }
                    }
                  }
                }
                JOINT RightFinger2
                {
                  OFFSET -0.916 -9.2044 0.2193
                  CHANNELS 3 Zrotation Xrotation Yrotation
                  JOINT RightFinger21
                  {
                    OFFSET -0.0117 -4.1944 -0.0248
                    CHANNELS 3 Zrotation Xrotation Yrotation
                    JOINT RightFinger22
                    {
                      OFFSET -0.0071 -2.3249 -0.0142
                      CHANNELS 3 Zrotation Xrotation Yrotation
                      End Site
                      {
                        OFFSET 0.1475 -2.0882 0.0028
                      }
                    }
                  }
                }
                JOINT RightFinger3
                {
                  OFFSET -0.6113 -8.7231 -2.0637
                  CHANNELS 3 Zrotation Xrotation Yrotation
                  JOINT RightFinger31
                  {
                    OFFSET 0.1927 -3.8059 -0.2383
                    CHANNELS 3 Zrotation Xrotation Yrotation
                    JOINT RightFinger32
                    {
                      OFFSET 0.1091 -2.1688 -0.1362
                      CHANNELS 3 Zrotation Xrotation Yrotation
                      End Site
                      {
                        OFFSET 0.2358 -1.9176 -0.0906
                      }
                    }
                  }
                }
                JOINT RightFinger4
                {
                  OFFSET 0.6151 -8.0947 -3.564
                  CHANNELS 3 Zrotation Xrotation Yrotation
                  JOINT RightFinger41
                  {
                    OFFSET 0.4882 -2.341 -0.6462
                    CHANNELS 3 Zrotation Xrotation Yrotation
                    JOINT RightFinger42
                    {
                      OFFSET 0.3574 -1.7166 -0.4742
                      CHANNELS 3 Zrotation Xrotation Yrotation
                      End Site
                      {
                        OFFSET 0.4187 -1.5237 -0.3496
                      }
                    }
                  }
                }
                JOINT RightFinger0
                {
                  OFFSET 1.4199 -1.8761 1.4221
                  CHANNELS 3 Zrotation Xrotation Yrotation
                  JOINT RightFinger01
                  {
                    OFFSET 1.1472 -3.4929 2.6336
                    CHANNELS 3 Zrotation Xrotation Yrotation
                    JOINT RightFinger02
                    {
                      OFFSET 0.8229 -2.3 1.6571
                      CHANNELS 3 Zrotation Xrotation Yrotation
                      End Site
                      {
                        OFFSET 0.5822 -1.6914 1.1582
                      }
                    }
                  }
                }
              }
            }
          }
        }
      }
    }
  }
  JOINT RightHip
  {
    OFFSET -9.412 3.9771 -0.7758
    CHANNELS 3 Zrotation Xrotation Yrotation
    JOINT RightKnee
    {
      OFFSET -0.7531 -40.938 0
      CHANNELS 3 Zrotation Xrotation Yrotation
      JOINT RightAnkle
      {
        OFFSET 0 -40.1986 0
        CHANNELS 3 Zrotation Xrotation Yrotation
        JOINT RightToe
        {
          OFFSET 0 -4.4182 9.239
          CHANNELS 3 Zrotation Xrotation Yrotation
          End Site
          {
            OFFSET 0 0 6.1981
          }
        }
      }
    }
  }
  JOINT LeftHip
  {
    OFFSET 9.4119 3.9773 -0.7758
    CHANNELS 3 Zrotation Xrotation Yrotation
    JOINT LeftKnee
    {
      OFFSET 0.7532 -40.9383 0
      CHANNELS 3 Zrotation Xrotation Yrotation
      JOINT LeftAnkle
      {
        OFFSET 0 -40.1986 0
        CHANNELS 3 Zrotation Xrotation Yrotation
        JOINT LeftToe
        {
          OFFSET 0 -4.4182 9.239
          CHANNELS 3 Zrotation Xrotation Yrotation
          End Site
          {
            OFFSET 0 0 6.1981
          }
        }
      }
    }
  }
}
MOTION
Frames:	4
Frame Time:	0.0333333
0.000566978 3.85416 88.9788 180 -85.9956 -180 -0.00142211 0.382679 -0.0899906 -0.00224321 0.765334 -0.179975 -0.0022432 0.765334 -0.179975 -9.66896e-007 13.0003 5.17131e-006 -2.64233e-007 -1.34715 3.05849e-008 -0.680035 -4.16227 -10.5107 5.04967 0.67564 22.3251 -7.05178 -44.5503 -3.62138 -15.4268 9.15718 1.77783 -1.59028e-015 -3.18055e-015 -0 -0 -3.18055e-015 -0 -1.59028e-015 0 1.59028e-015 -1.59028e-015 -3.18055e-015 -0 -0.0128317 0.00233188 8.18014e-005 -1.59028e-015 3.18055e-015 -1.59028e-015 -1.59028e-015 -3.18055e-015 -0 -0.0160586 0.00300371 0.000856045 3.18055e-015 6.36111e-015 -0 -1.59028e-015 -3.18055e-015 -0 -0.0125612 0.00310903 0.00282135 -3.18055e-015 1.90833e-014 1.59028e-015 -1.59028e-015 -3.18055e-015 -0 -0 -3.18055e-015 -0 -1.59028e-015 0 1.59028e-015 1.38235 0.13349 3.92465 -5.15525 2.70505 -16.6298 28.8314 -62.5563 21.2041 15.5903 5.23108 0.749163 -5.67903e-006 -3.57817e-006 -3.93335e-006 1.08989e-005 2.42404e-006 1.11884e-006 -2.40943e-006 -7.94315e-006 -1.18322e-006 -5.67903e-006 -3.57817e-006 -3.93335e-006 0.0129341 0.00231613 -8.57127e-005 -1.91883e-006 -4.53904e-006 -3.2515e-006 -5.67903e-006 -3.57817e-006 -3.93335e-006 0.0163128 0.00303133 -0.000869577 -4.5277e-006 -5.90752e-006 -1.84461e-006 -5.67903e-006 -3.57817e-006 -3.93335e-006 0.0145691 0.00367419 -0.00325579 -6.60187e-006 -3.49898e-006 -1.81353e-006 -5.67903e-006 -3.57817e-006 -3.93335e-006 1.08989e-005 2.42404e-006 1.11884e-006 -2.40943e-006 -7.94315e-006 -1.18322e-006 -41.9121 -28.4283 -30.0515 -119.014 62.3483 126.128 -5.18254 8.19831 8.91957 1.98785e-015 0 3.18055e-015 41.6651 -28.4046 29.7097 119.024 62.3456 -126.142 4.92777 8.20693 -8.76002 2.71577e-007 1.37611e-006 1.55424e-006 
0.000529706 3.8545 88.9789 -180 -85.9956 -180 -0.00129014 0.337472 -0.0899617 -0.00205038 0.674921 -0.179923 -0.00205042 0.674933 -0.179923 1.9945e-005 13.7524 -9.10562e-005 1.80969e-008 -0.482004 5.77569e-008 -1.29538 -3.84084 -10.6958 5.51744 0.625136 22.3708 -6.70146 -44.1838 -3.34781 -15.4385 8.82841 1.6034 1.59028e-015 9.54166e-015 -1.59028e-015 1.16079e-006 4.68193e-006 1.62409e-006 -1.59028e-015 6.36111e-015 -3.18055e-015 1.59028e-015 9.54166e-015 -1.59028e-015 -0.0128011 0.002327 8.47475e-005 1.76556e-031 3.18055e-015 -3.18055e-015 1.59028e-015 9.54166e-015 -1.59028e-015 -0.0160276 0.00300252 0.000853004 3.18055e-015 1.59028e-014 -1.59028e-015 1.59028e-015 9.54166e-015 -1.59028e-015 -0.0125723 0.00311974 0.00282479 -3.18055e-015 6.36111e-015 3.18055e-015 1.59028e-015 9.54166e-015 -1.59028e-015 1.16079e-006 4.68193e-006 1.62409e-006 -1.59028e-015 6.36111e-015 -3.18055e-015 1.85922 0.108167 4.18231 -5.58942 2.5045 -16.6926 27.7579 -62.1468 20.2154 15.5904 5.23102 0.749167 -3.97569e-015 3.18055e-015 -0 -3.18055e-015 0 1.59028e-015 -3.18055e-015 0 -0 -3.97569e-015 3.18055e-015 -0 0.0129632 0.00231734 -8.60287e-005 7.15625e-015 -3.18055e-015 -1.59028e-015 -3.97569e-015 3.18055e-015 -0 0.0163359 0.00303115 -0.000876349 3.53113e-031 6.36111e-015 -3.18055e-015 -3.97569e-015 3.18055e-015 -0 0.0145597 0.003682 -0.00326073 -7.95139e-016 0 -0 -3.97569e-015 3.18055e-015 -0 -3.18055e-015 0 1.59028e-015 -3.18055e-015 0 -0 -41.3193 -28.4647 -29.3737 -119.014 62.3484 126.126 -4.59918 8.12413 8.49284 -4.18489e-007 -1.7642e-007 8.20691e-008 41.0927 -28.4404 29.0603 119.023 62.3459 -126.139 4.36564 8.13049 -8.34709 2.72565e-007 8.07757e-007 1.55419e-006 
0.000490647 3.85483 88.979 -180 -85.9956 -180 -0.00115891 0.292425 -0.0899776 -0.00185861 0.584857 -0.179956 -0.00185868 0.584862 -0.179953 -7.37656e-006 14.5035 3.16422e-005 2.28151e-008 0.382993 -1.04404e-007 -1.90934 -3.51832 -10.8772 5.98521 0.574951 22.4168 -6.35571 -43.8162 -3.079 -15.4512 8.49977 1.42907 -5.29669e-031 -9.54166e-015 -3.18055e-015 6.59866e-006 -7.5625e-008 -3.96555e-006 1.59028e-015 6.36111e-015 6.36111e-015 -5.29669e-031 -9.54166e-015 -3.18055e-015 -0.0128358 0.00231901 8.01645e-005 -5.8904e-006 1.70235e-006 -3.80675e-006 -5.29669e-031 -9.54166e-015 -3.18055e-015 -0.0160537 0.002999 0.000846417 -1.59028e-015 3.18055e-015 -1.59028e-015 -5.29669e-031 -9.54166e-015 -3.18055e-015 -0.0125945 0.00312324 0.00281924 -0 -3.18055e-015 -0 -5.29669e-031 -9.54166e-015 -3.18055e-015 6.59866e-006 -7.5625e-008 -3.96555e-006 1.59028e-015 6.36111e-015 6.36111e-015 2.33615 0.0841499 4.4404 -6.02364 2.30446 -16.7569 26.7141 -61.7289 19.2566 15.5905 5.23095 0.749186 1.76556e-031 -3.18055e-015 3.18055e-015 7.95139e-016 -3.18055e-015 3.18055e-015 1.59028e-015 0 -0 1.76556e-031 -3.18055e-015 3.18055e-015 0.0129635 0.002315 -8.50715e-005 -3.18055e-015 0 -0 1.76556e-031 -3.18055e-015 3.18055e-015 0.0163367 0.00303131 -0.000870571 1.59028e-015 2.8625e-014 -1.59028e-015 1.76556e-031 -3.18055e-015 3.18055e-015 0.0145658 0.00367236 -0.00325569 -3.97569e-015 3.18055e-015 -0 1.76556e-031 -3.18055e-015 3.18055e-015 7.95139e-016 -3.18055e-015 3.18055e-015 1.59028e-015 0 -0 -40.7259 -28.4948 -28.6955 -119.013 62.3485 126.123 -4.01658 8.04572 8.06702 -4.18473e-007 -1.76329e-007 8.21933e-008 40.5197 -28.4707 28.4104 119.022 62.3462 -126.136 3.80426 8.05009 -7.935 1.01547e-006 5.82115e-007 1.1325e-006 
0.000450647 3.85515 88.9791 180 -85.9956 -180 -0.00102737 0.247304 -0.0899668 -0.00166647 0.494604 -0.179935 -0.00166646 0.4946 -0.179932 -5.20525e-006 15.2549 2.06696e-005 5.8124e-008 1.24765 1.23453e-007 -2.52192 -3.19345 -11.055 6.45296 0.525131 22.4633 -6.01445 -43.4474 -2.81495 -15.4649 8.17114 1.25484 -4.77083e-015 9.54166e-015 -0 -3.18055e-015 1.27222e-014 4.77083e-015 -1.59028e-015 1.27222e-014 3.18055e-015 -4.77083e-015 9.54166e-015 -0 -0.0128104 0.00231922 8.91176e-005 3.18055e-015 0 1.59028e-015 -4.77083e-015 9.54166e-015 -0 -0.0160461 0.00299249 0.000858396 -1.59028e-015 0 3.18055e-015 -4.77083e-015 9.54166e-015 -0 -0.0125586 0.0031169 0.00282711 -1.76556e-031 -3.18055e-015 -3.18055e-015 -4.77083e-015 9.54166e-015 -0 -3.18055e-015 1.27222e-014 4.77083e-015 -1.59028e-015 1.27222e-014 3.18055e-015 2.81312 0.0628212 4.69848 -6.45795 2.10492 -16.8227 25.6992 -61.3031 18.3269 15.5904 5.23087 0.749209 3.18055e-015 -3.18055e-015 -0 -7.95139e-016 -3.18055e-015 1.59028e-015 3.18055e-015 0 -0 3.18055e-015 -3.18055e-015 -0 0.0129706 0.00231044 -8.79182e-005 2.38542e-015 -3.18055e-015 -0 3.18055e-015 -3.18055e-015 -0 0.0163459 0.00303548 -0.000876754 -7.95139e-016 6.36111e-015 1.59028e-015 3.18055e-015 -3.18055e-015 -0 0.0145972 0.00368564 -0.00327058 -5.56597e-015 -3.18055e-015 -0 3.18055e-015 -3.18055e-015 -0 -7.95139e-016 -3.18055e-015 1.59028e-015 3.18055e-015 0 -0 -40.132 -28.5189 -28.0168 -119.013 62.3484 126.121 -3.43479 7.96303 7.64213 -7.95139e-016 -1.59028e-015 3.18055e-015 39.9463 -28.4952 27.7601 119.021 62.3465 -126.133 3.24368 7.96573 -7.52386 9.02356e-007 -3.46861e-007 1.43137e-006 
